<svg width="36" height="36" viewBox="0 0 36 36" fill="none" xmlns="http://www.w3.org/2000/svg">
<g opacity="0.65">
<path d="M35.3474 13.5247C34.9991 13.4383 34.5638 13.6111 34.2155 13.7408C31.4296 14.8642 27.5989 16.2037 24.8564 18.7531C21.374 22.0371 15.4538 26.8334 13.2772 28.4321C12.2325 29.2099 11.0136 29.1667 9.92535 29.2099C8.61942 29.2531 7.35703 29.426 6.0511 29.5988C5.78992 29.642 5.44167 29.7284 5.31108 29.9877C5.57226 30.2037 5.83345 30.463 5.83345 30.8519C5.78992 31.284 5.31108 31.6729 4.9193 31.9321C4.00515 32.5371 3.04747 32.926 2.13333 33.4877C1.65449 33.747 0.653278 34.1358 0.348562 34.6112C0.2615 34.7408 0.348562 34.8704 0.435624 34.9568C0.522685 35.0433 0.696809 35 0.827401 35C3.39572 34.8272 5.96404 33.8766 8.40177 32.6667C9.14179 32.2778 9.96888 31.8025 10.8395 31.2408C11.8407 30.5926 12.9725 30.1605 14.0608 30.1173C17.3256 29.9445 23.6811 28.7346 29.0789 24.3704C34.4767 20.0062 35.9568 14.8642 35.9568 14.4753C36.0003 14.0432 35.7827 13.6111 35.3474 13.5247Z" fill="#C68C40"/>
<path d="M27.8599 24.9754C28.121 25.71 28.9046 26.6174 29.2528 26.6606C30.6894 27.0063 30.5152 24.3273 30.9941 22.3828" fill="#C68C40"/>
<path d="M26.859 17.4137C24.813 17.5001 22.2012 16.8519 22.2883 18.2779C22.2883 18.5803 23.0283 19.5309 23.7248 19.9198" fill="#C68C40"/>
</g>
<g opacity="0.65">
<path d="M0.652963 22.4691C1.00121 22.5556 1.43652 22.3827 1.78476 22.2099C4.52721 21 8.31439 19.5741 10.9698 16.8951C14.3652 13.5247 20.1112 8.51235 22.2443 6.87037C23.2455 6.04938 24.4643 6.04938 25.5961 6.00617C26.9021 5.91975 28.1644 5.74691 29.4268 5.53086C29.688 5.48765 30.0363 5.40123 30.1669 5.14198C29.9057 4.92593 29.601 4.66667 29.6445 4.32099C29.688 3.88889 30.1233 3.5 30.5151 3.19753C31.3857 2.59259 32.3434 2.11728 33.2576 1.59877C33.7364 1.2963 34.7376 0.907407 35.0423 0.388889C35.1294 0.259259 35.0423 0.12963 34.9553 0.0864198C34.8682 0.0432099 34.6505 0 34.52 0C31.9516 0.259259 29.4268 1.2963 26.9891 2.59259C26.2491 2.98148 25.4655 3.5 24.5949 4.06173C23.5937 4.75309 22.5054 5.18519 21.3736 5.27161C18.1524 5.53086 11.7969 6.91358 6.52963 11.4938C1.26239 16.0741 0 21.1728 0 21.5617C0 21.9938 0.217654 22.3827 0.652963 22.4691Z" fill="#C68C40"/>
<path d="M7.83573 10.8025C7.57455 10.0679 6.70393 9.20369 6.39922 9.16048C4.9627 8.85801 5.18035 11.537 4.78857 13.5247" fill="#C68C40"/>
<path d="M9.05469 18.3642C11.1006 18.2346 13.7125 18.7963 13.6254 17.3704C13.6254 17.0679 12.8419 16.1173 12.1454 15.7716" fill="#C68C40"/>
</g>
</svg>
