<svg width="19" height="18" viewBox="0 0 19 18" fill="none" xmlns="http://www.w3.org/2000/svg">
<path fill-rule="evenodd" clip-rule="evenodd" d="M8.01627 0.00274502C8.20752 0.0024457 8.41327 0.00253803 8.6353 0.00263767L9.00126 0.00274502C11.9329 0.00274502 12.2804 0.0132675 13.4381 0.0658796C14.5086 0.114832 15.0896 0.293713 15.4767 0.444001C15.9891 0.643012 16.3544 0.880911 16.7385 1.26521C17.1227 1.64951 17.3606 2.0155 17.5601 2.5279C17.7104 2.91449 17.8895 3.49551 17.9382 4.56605C17.9909 5.72352 18.0023 6.07122 18.0023 9.00149C18.0023 11.9318 17.9909 12.2795 17.9382 13.4369C17.8893 14.5075 17.7104 15.0885 17.5601 15.4751C17.3611 15.9875 17.1227 16.3523 16.7385 16.7364C16.3542 17.1207 15.9893 17.3586 15.4767 17.5576C15.0901 17.7086 14.5086 17.887 13.4381 17.936C12.2806 17.9886 11.9329 18 9.00126 18C6.06939 18 5.72192 17.9886 4.56445 17.936C3.49391 17.8865 2.91288 17.7077 2.52561 17.5574C2.01322 17.3584 1.64722 17.1205 1.26292 16.7362C0.878624 16.3519 0.640725 15.9868 0.441256 15.4742C0.290968 15.0876 0.111858 14.5066 0.0631346 13.436C0.0105224 12.2785 0 11.9308 0 8.99874C0 6.06664 0.0105224 5.72077 0.0631346 4.56331C0.112087 3.49276 0.290968 2.91174 0.441256 2.5247C0.640267 2.0123 0.878624 1.6463 1.26292 1.26201C1.64722 0.877708 2.01322 0.63981 2.52561 0.440341C2.91266 0.289367 3.49391 0.110943 4.56445 0.0617622C5.57735 0.0160124 5.96988 0.00228751 8.01627 0V0.00274502ZM14.8623 1.82565C14.1348 1.82565 13.5447 2.41514 13.5447 3.14279C13.5447 3.87021 14.1348 4.46038 14.8623 4.46038C15.5897 4.46038 16.1799 3.87021 16.1799 3.14279C16.1799 2.41537 15.5897 1.8252 14.8623 1.8252V1.82565ZM3.36255 9.00389C3.36255 5.89001 5.88712 3.36536 9.00097 3.36523C12.1149 3.36523 14.6389 5.88993 14.6389 9.00389C14.6389 12.1178 12.1152 14.6414 9.0012 14.6414C5.88725 14.6414 3.36255 12.1178 3.36255 9.00389Z" fill="#8B8B8B"/>
<path d="M9.00116 5.34399C11.0224 5.34399 12.6611 6.98252 12.6611 9.00397C12.6611 11.0252 11.0224 12.664 9.00116 12.664C6.97971 12.664 5.34119 11.0252 5.34119 9.00397C5.34119 6.98252 6.97971 5.34399 9.00116 5.34399Z" fill="#8B8B8B"/>
</svg>
