<svg width="112" height="48" viewBox="0 0 112 48" fill="none" xmlns="http://www.w3.org/2000/svg">
<g clip-path="url(#clip0)">
<path fill-rule="evenodd" clip-rule="evenodd" d="M51.0813 7.3957C51.2999 0.797511 43.9401 -0.217594 40.661 4.20537C37.0904 9.06337 37.892 18.4894 38.6207 24.29C39.568 31.3232 39.1308 40.5317 33.0826 45.2446C29.512 47.9999 20.9135 49.2326 16.3956 46.1872C13.6265 44.3746 12.242 41.3292 12.1691 38.0664C12.1691 37.4138 12.1691 36.7613 12.242 36.1087C12.5069 36.1087 12.6342 36.0891 12.7566 36.0703C12.87 36.0529 12.9791 36.0362 13.1893 36.0362C13.1164 36.7613 13.0436 37.5588 13.0436 38.2839C13.1164 41.0392 14.2824 43.722 16.687 45.2446C20.2576 47.4924 24.6298 47.0573 27.9089 44.5921C33.8113 40.0966 34.1757 31.0332 33.3012 24.3625C32.4997 18.3443 31.771 9.71594 34.9772 4.42289C39.0579 -2.24781 52.393 -1.74025 52.1015 7.32319C51.9557 11.9637 49.1138 16.1691 45.4704 18.9244C45.2518 19.0694 44.9603 18.9969 44.7417 18.8519C44.596 18.6344 44.6688 18.3443 44.8146 18.1993C48.2394 15.6616 50.9356 11.7462 51.0813 7.3957ZM58.1496 44.8096C57.4209 46.1148 58.4411 46.8398 59.3155 46.4048C59.3983 46.3577 59.483 46.3107 59.5699 46.2624C60.0187 46.013 60.5268 45.7306 61.1373 45.2447C62.678 44.0064 64.6043 42.1327 66.4606 40.2086C69.5563 35.0793 76.6402 23.3322 78.6987 19.577C78.7716 18.7069 78.6259 17.9818 78.1887 17.6193C79.8646 16.7492 84.3825 17.7643 83.3624 21.3172C83.0709 22.4773 82.1965 24.0725 81.1034 26.0302C84.1639 22.6223 87.8074 18.9969 90.2121 17.7643C91.9609 16.8942 97.2075 18.7794 96.1873 22.2598C95.823 23.5649 94.9486 25.2326 93.8555 27.2628C97.0618 23.6374 101.142 19.3595 103.839 17.9818C105.587 17.1117 110.834 18.9969 109.814 22.5498C109.116 24.8221 106.596 28.7978 103.936 32.9941C103.541 33.6181 103.142 34.2471 102.746 34.8761C100.195 38.864 97.8633 42.7794 96.8432 44.8096C96.1145 46.1148 97.1346 46.8398 98.0091 46.3323C98.5192 46.1148 99.1021 45.8247 99.8308 45.1722C103.187 42.4745 107.859 36.9887 110.098 34.3602L110.098 34.3598C110.387 34.0213 110.634 33.7301 110.834 33.4985L111.126 33.1359C111.271 32.9184 111.563 32.8459 111.781 33.0634C112 33.2084 112 33.4985 111.854 33.716L111.789 33.794C108.765 37.3895 101.844 45.6209 98.082 47.4924C96.3331 48.3625 91.0865 46.4773 92.1067 42.9969C92.7857 40.7102 95.2991 36.7099 97.9832 32.4379C99.0438 30.7498 100.131 29.0193 101.142 27.3353C101.404 26.8754 101.67 26.4122 101.937 25.9458L101.947 25.9284L101.951 25.9214L101.951 25.9204C102.943 24.189 103.96 22.4129 104.932 20.5921C105.66 19.287 104.64 18.5619 103.766 19.0694C103.256 19.287 102.673 19.577 101.944 20.2296C98.1548 23.2749 93.1268 29.293 91.4509 31.3957L91.1594 31.7583C91.0865 31.7583 91.0865 31.8308 91.0865 31.8308C90.6729 32.514 90.2507 33.2066 89.8267 33.9024L89.8254 33.9045L89.8252 33.9049C86.5146 39.3369 83.0858 44.963 82.6337 47.8549C82.6337 47.8549 75.8568 47.2024 78.3344 43.0694C78.374 43.0005 78.5975 42.6243 78.9606 42.0132L78.961 42.0125L78.9611 42.0124C81.273 38.1213 89.2369 24.7178 91.378 20.5196C92.0338 19.2145 91.0865 18.4894 90.1392 18.9244C90.0068 19.0122 89.8611 19.1001 89.702 19.1959L89.7019 19.196C89.3356 19.4167 88.8984 19.6801 88.3903 20.0846C84.8198 22.9123 80.229 28.3504 78.2615 30.7432C77.9615 31.2186 77.6573 31.6995 77.3509 32.1837C73.6392 38.0506 69.6185 44.4058 69.08 47.4199C69.08 47.4199 63.4737 46.862 64.5863 43.5113C62.6005 45.3952 60.7108 46.9564 59.3155 47.6374C57.6396 48.5075 52.393 46.6223 53.4131 43.1419C54.1577 40.6106 56.2231 37.4484 58.3497 34.1926L58.3497 34.1925L58.3498 34.1924L58.3499 34.1923L58.35 34.1922C58.7208 33.6245 59.0934 33.0539 59.4613 32.4833C54.3604 39.299 47.0735 48.29 42.337 47.7099C38.8393 47.2749 38.3292 44.8821 39.0579 42.1993C40.9525 35.8187 52.2472 21.5347 59.3884 19.0694C61.7202 18.2719 63.6148 17.9093 65.8009 18.3444C67.1126 18.6344 68.2056 19.2145 68.4242 19.722C68.6428 20.2296 68.1327 21.0271 67.4769 21.6797C66.9668 22.3323 66.4567 22.1873 66.5296 21.5347C67.4769 20.3746 67.8412 19.867 66.3839 19.577C64.2707 19.2145 51.81 32.1933 45.7619 40.5317C43.5758 43.577 42.1913 46.3323 42.9928 46.5498C47.3079 47.4699 56.2119 35.4178 61.0145 28.9173C61.889 27.7335 62.6276 26.7339 63.1776 26.0302C63.4691 25.3051 63.6877 24.6525 63.7606 24C63.7606 24 70.5374 24.6525 67.987 28.7855C67.9459 28.8876 67.3491 29.8192 66.456 31.2134C64.1805 34.7657 59.9812 41.3208 58.1496 44.8096ZM13.918 29.3655C13.6265 29.9456 14.0638 30.2356 14.4281 30.0181C14.6467 29.9456 14.8653 29.8005 15.2297 29.5105C16.4636 28.506 18.1292 26.5994 19.1964 25.3777L19.1965 25.3776C19.4727 25.0614 19.7089 24.791 19.8871 24.5941C19.8723 24.5352 19.887 24.4744 19.9662 24.435C20.0251 24.36 20.0862 24.2825 20.1491 24.2026C21.4847 22.5073 23.6522 19.7561 24.5569 17.4017C23.8282 16.8217 23.3181 16.0241 23.3181 15.0815C23.3181 14.5014 23.6825 13.7764 24.4112 13.9939C25.1399 14.2114 25.3585 15.154 25.3585 15.8066C25.3585 16.1864 25.2474 16.6214 25.1222 17.1117C25.104 17.1831 25.0855 17.2556 25.067 17.3292C25.2856 17.5467 25.5771 17.6918 25.7957 17.7643C25.9379 17.8249 26.0762 17.8818 26.2095 17.9365C27.5102 18.471 28.3174 18.8028 27.3259 20.4471C27.1802 20.6646 23.3181 27.2628 22.2251 29.3655C21.9336 29.9455 22.3708 30.2356 22.7352 30.0181C22.8106 29.968 22.8861 29.9266 22.9676 29.8819C23.1221 29.7971 23.2982 29.7004 23.5367 29.5105C25.1399 28.2054 27.4717 25.4501 28.1275 24.58L28.2732 24.3625C28.3461 24.29 28.4919 24.29 28.5647 24.3625C28.6376 24.435 28.6376 24.58 28.5647 24.6525C27.3259 26.1751 24.3383 29.6555 22.7352 30.5256C22.0065 30.8881 19.7475 30.0906 20.1848 28.5679C20.5052 27.5405 21.626 25.6821 22.7989 23.7371C24.0265 21.7016 25.3113 19.5712 25.7957 18.1993L25.65 18.1268C25.5407 18.0543 25.4131 17.9818 25.2856 17.9093C25.1581 17.8368 25.0306 17.7643 24.9213 17.6918C23.9485 20.0425 21.8493 22.723 20.4559 24.4757C20.4645 24.5399 20.447 24.6091 20.4034 24.6525C19.1646 26.1752 16.1041 29.728 14.501 30.5981C13.7723 30.9607 11.5133 30.1631 11.9506 28.6404C12.2791 27.6053 13.4304 25.7514 14.6317 23.817C15.0292 23.177 15.4322 22.5281 15.8126 21.8972C16.0112 21.5302 16.2209 21.1632 16.433 20.792L16.433 20.7919C16.7656 20.2096 17.1043 19.6168 17.4157 18.9969C17.7072 18.4169 17.27 18.1268 16.9057 18.3443C16.6871 18.4168 16.4684 18.5619 16.1041 18.8519C14.501 20.157 12.3149 22.7673 11.5862 23.6374L11.4405 23.7824C9.83735 26.3202 8.01562 29.293 7.79701 30.6706C7.79701 30.6706 4.88224 30.3806 5.97528 28.6404C6.12102 28.4229 10.4932 21.0271 11.5862 18.9969C11.8777 18.4169 11.4405 18.1268 11.0761 18.3443C11.0124 18.3866 10.9487 18.4227 10.8832 18.4599C10.7239 18.5501 10.5539 18.6464 10.3474 18.8519C8.90184 20.0163 7.06607 22.1514 6.13019 23.2398L6.13018 23.2398L5.97528 23.4199C4.22642 25.9576 2.25895 29.003 1.96747 30.4531C1.96747 30.4531 -0.874427 30.1631 0.218611 28.4229C0.36435 28.2054 4.95511 20.5921 6.04815 18.5619C6.04815 18.1993 5.97528 17.8368 5.82954 17.7643C6.55823 17.4017 8.45283 17.8368 8.01562 19.3594C7.90053 19.7603 7.64912 20.2515 7.33316 20.8689C7.24901 21.0333 7.16027 21.2067 7.06832 21.3897C8.37996 19.9395 9.91022 18.3443 11.0033 17.8368C11.7319 17.4743 13.9909 18.2718 13.5537 19.7945C13.4079 20.3746 13.0436 21.0996 12.5335 21.9697C13.918 20.3746 15.6669 18.5619 16.8328 17.9818C17.5615 17.6193 19.8204 18.4169 19.3832 19.9395C19.0189 21.0996 17.7072 23.1298 16.3227 25.2326C15.3754 26.7552 14.3552 28.4954 13.918 29.3655ZM24.4112 14.4289C24.8484 14.6464 24.9941 15.3715 24.9941 15.8066C24.9941 16.1691 24.8484 16.6042 24.7027 17.0392C24.1197 16.5316 23.7554 15.8791 23.7554 15.154C23.7554 14.7915 23.974 14.2114 24.4112 14.4289Z" fill="#383838"/>
</g>
<defs>
<clipPath id="clip0">
<rect width="112" height="48" fill="white"/>
</clipPath>
</defs>
</svg>
