<svg width="35" height="23" viewBox="0 0 35 23" fill="none" xmlns="http://www.w3.org/2000/svg">
<path fill-rule="evenodd" clip-rule="evenodd" d="M17.4703 19.4554C15.6215 21.0527 13.2234 22.017 10.6028 22.017C4.75546 22.017 0.0152664 17.2162 0.0152664 11.294C0.0152664 5.37188 4.75546 0.571045 10.6028 0.571045C13.2234 0.571045 15.6216 1.53532 17.4704 3.13264C19.3192 1.53534 21.7174 0.571087 24.338 0.571087C30.1853 0.571087 34.9255 5.37193 34.9255 11.2941C34.9255 17.2162 30.1853 22.017 24.338 22.017C21.7174 22.017 19.3192 21.0528 17.4703 19.4554Z" fill="#ED0006"/>
<path fill-rule="evenodd" clip-rule="evenodd" d="M17.4704 19.4554C19.7468 17.4886 21.1903 14.5621 21.1903 11.294C21.1903 8.02599 19.7468 5.09941 17.4704 3.13262C19.3192 1.53531 21.7174 0.571045 24.338 0.571045C30.1853 0.571045 34.9255 5.37188 34.9255 11.294C34.9255 17.2162 30.1853 22.017 24.338 22.017C21.7174 22.017 19.3192 21.0527 17.4704 19.4554Z" fill="#F9A000"/>
<path fill-rule="evenodd" clip-rule="evenodd" d="M17.4704 19.4553C19.7468 17.4885 21.1903 14.5619 21.1903 11.2939C21.1903 8.02592 19.7468 5.09936 17.4704 3.13257C15.194 5.09936 13.7505 8.02592 13.7505 11.2939C13.7505 14.5619 15.194 17.4885 17.4704 19.4553Z" fill="#FF5E00"/>
</svg>
