<svg width="34" height="45" viewBox="0 0 34 45" fill="none" xmlns="http://www.w3.org/2000/svg">
<g opacity="0.65" clip-path="url(#clip0)">
<path fill-rule="evenodd" clip-rule="evenodd" d="M18.7387 16.7013C19.673 16.8615 21.386 16.915 22.0089 16.7013C19.2059 26.795 18.7387 24.2849 9.44709 28.9312C10.8486 28.7176 13.8074 28.3438 15.2089 28.0767C10.1219 30.747 5.86541 34.0582 2.43945 38.4908C3.9967 20.4397 16.4547 3.67034 33.9998 0.412598C31.3524 2.65564 27.4074 6.39403 25.383 9.22453C24.1891 9.812 20.7631 11.0937 19.7249 12.1084C21.5936 12.055 23.4104 11.4142 24.9677 10.6665C23.5662 12.5357 23.0471 13.6038 22.2165 15.3662C20.3478 15.9002 19.9845 16.0605 18.7387 16.7013Z" fill="#C68C40"/>
<path fill-rule="evenodd" clip-rule="evenodd" d="M0 42.5497C0 42.1225 0.155725 41.7487 0.415267 41.4282C0.726718 41.1078 1.09008 41.001 1.55725 41.001C1.97252 41.001 2.33588 41.1612 2.64733 41.4282C2.95878 41.6953 3.1145 42.0691 3.1145 42.5497C3.1145 42.977 2.95878 43.3508 2.64733 43.6713C2.33588 43.9917 1.97252 44.1519 1.55725 44.1519C1.14198 44.1519 0.726718 43.9917 0.415267 43.6713C0.155725 43.3508 0 42.977 0 42.5497Z" fill="#C68C40"/>
</g>
<defs>
<clipPath id="clip0">
<rect width="34" height="43.7393" fill="white" transform="translate(0 0.412598)"/>
</clipPath>
</defs>
</svg>
