<svg width="40" height="24" viewBox="0 0 40 24" fill="none" xmlns="http://www.w3.org/2000/svg">
<g opacity="0.65">
<path d="M20.0402 17.3928C12.5575 17.3928 4.59196 15.8813 1.33334 13.3334L3.10346 18.7315C3.90806 21.9991 9.94254 24 20 24C30.0575 24 35.4483 21.9991 36.8966 18.7747L38.6667 13.3766C35.569 15.7517 28.4081 17.3928 20.0402 17.3928Z" fill="#C68C40"/>
<path d="M34.25 10.705C30.4583 11.7842 25.375 12.3885 20 12.3885C14.625 12.3885 9.58333 11.7842 5.75 10.705C3.54167 10.0576 0.958333 9.06475 0 7.55396V9.66906C0 9.75539 0 9.84173 0.0416667 9.97122C1.16667 12.518 9.08333 15.1079 20.0833 15.1079C30.9167 15.1079 38.75 12.5612 40 10.0576C40 9.92806 40 9.79856 40 9.66906V7.59712C39 9.06475 36.4583 10.0576 34.25 10.705Z" fill="#C68C40"/>
<path d="M20 0C14.7083 0 9.70831 0.561151 5.95831 1.64029C5.45831 1.76978 4.95831 1.94245 4.54165 2.07194C3.33331 2.67626 2.83331 3.23741 2.83331 3.66907C2.83331 5.48201 9.87498 7.46763 20 7.46763C30.2916 7.46763 37.2083 5.48201 37.2083 3.66907C37.2083 3.15108 36.6666 2.63309 35.7083 2.15827C35.2083 1.98561 34.625 1.76978 34.0416 1.64029C30.2916 0.561151 25.3333 0 20 0Z" fill="#C68C40"/>
<path d="M37.9583 3.19421C38 3.36688 38.0417 3.49637 38.0417 3.66903C38.0417 6.73378 28.9583 8.3309 20 8.3309C11.0417 8.3309 1.99999 6.73378 1.99999 3.66903C1.99999 3.49637 2.04166 3.36688 2.08332 3.19421C0.99999 3.8417 0.416656 4.53234 0.416656 5.17983C0.416656 6.43162 2.49999 7.76975 5.95832 8.71939C9.70832 9.75537 14.6667 10.3597 20 10.3597C25.3333 10.3597 30.2917 9.79853 34.0417 8.71939C37.5417 7.76975 39.5833 6.43162 39.5833 5.17983C39.5833 4.53234 39 3.8417 37.9583 3.19421Z" fill="#C68C40"/>
</g>
</svg>
