<svg width="59" height="15" viewBox="0 0 59 15" fill="none" xmlns="http://www.w3.org/2000/svg">
<path opacity="0.65" d="M15.2744 3.29C16.6511 2.87 16.9789 2.38 17.2411 1.96C17.3067 1.82 17.3722 1.75 17.4378 1.68C17.9622 1.61 19.0767 1.89 20.1256 2.59C20.5189 2.8 20.9778 3.08 21.3056 3.29C20.2567 3.5 19.0767 3.85 17.8967 4.13C17.3722 4.27 16.8478 4.41 16.3233 4.55C16.3233 4.48 16.3233 4.41 16.3233 4.34C16.1267 3.92 15.6678 3.64 15.2744 3.29ZM35.2689 8.19C35.4 8.33 35.6622 8.4 36.0556 8.54C36.5144 8.68 37.1044 8.89 37.6944 9.31C38.7433 10.01 39.8578 10.22 42.7422 9.38C41.89 8.89 40.3167 8.05 38.8089 7.91C37.4978 7.77 35.6622 7.98 35.2689 8.19ZM0.655556 1.19C2.88444 3.29 4.85111 5.46 4.85111 7.07C4.85111 8.05 3.67111 9.24 3.01556 9.87C3.60556 10.08 4.65444 10.29 5.70333 9.94C6.35889 9.73 6.94889 9.45 7.53889 9.17C8.12889 8.89 8.65333 8.68 9.24333 8.47C8.19445 7.91 7.34222 7 6.35889 5.88C4.98222 4.48 3.34333 2.73 0.655556 1.19ZM13.3733 9.45C12.7178 10.99 12.3244 12.6 12.5211 12.88C13.2422 12.88 16.3233 11.48 18.6833 10.43C17.11 10.15 15.6678 9.94 14.4878 9.73C14.0944 9.59 13.7667 9.52 13.3733 9.45ZM22.4856 14C26.6811 14.14 28.6478 11.9 28.6478 11.83C26.8778 11.62 25.1078 11.34 23.4689 11.13C23.6656 11.97 23.3378 12.95 22.4856 14ZM55.6567 7.77C57.3611 8.4 59.4589 8.12 58.8689 8.54C56.1156 10.5 51.1333 10.08 50.6089 9.66C50.0844 9.24 50.2156 8.26 50.3467 7.49C50.4122 7.21 50.4122 7 50.4122 6.79C50.4778 5.6 48.9044 4.9 48.7078 4.83C48.5111 4.76 48.3144 4.83 48.2489 5.04C48.1833 5.25 48.2489 5.46 48.4456 5.53C48.8389 5.67 49.6911 6.23 49.6911 6.72C49.6911 6.93 49.6256 7.14 49.6256 7.35C49.4944 8.26 49.2978 9.59 50.15 10.29C50.2156 10.36 50.4122 10.43 50.5433 10.5C49.8878 10.71 49.0356 10.92 47.9867 11.06C45.6922 8.96 46.5444 6.44 46.61 6.37C46.6756 6.16 46.61 5.95 46.4133 5.88C46.2167 5.81 46.02 5.88 45.9544 6.09C45.9544 6.09 44.9711 8.89 47.1344 11.2C45.0367 11.55 42.2833 11.9 39.2022 11.9C31.1389 11.9 20.3878 10.01 14.6189 8.96C12.5867 8.61 11.2756 8.4 10.7511 8.33C9.24333 8.05 8.12889 6.93 6.75222 5.46C5.24444 3.71 3.34333 1.68 0 0C1.96667 0.21 4.45778 1.61 6.88333 3.01C9.30889 4.41 11.6033 5.74 13.3078 5.74C14.4878 5.74 16.2578 5.25 18.0933 4.76C19.2078 4.48 20.3878 4.13 21.4367 3.92C22.2889 3.78 22.7478 3.71 23.6656 3.57C23.8622 3.57 23.9933 3.36 24.1244 3.15C24.5178 3.29 25.1078 3.43 25.5667 3.36C26.0256 3.22 26.2878 2.87 26.4189 2.59C27.5989 3.08 27.7956 3.08 27.8611 3.08C28.0578 3.08 28.5822 3.01 28.7789 2.45L28.8444 1.96L30.09 2.45C30.5489 2.59 31.0078 2.38 31.27 1.89L31.4011 1.47L33.1056 2.17C33.63 2.38 34.1544 2.1 34.4167 1.61L34.5478 1.33L36.3178 2.1C36.8422 2.31 37.4322 2.1 37.6944 1.54L37.8256 1.26L39.5956 2.24C40.12 2.52 40.71 2.31 40.9722 1.75L41.0378 1.61C42.0211 1.82 45.6922 2.66 47.8556 3.22C49.2978 3.57 51.1333 4.9 52.7722 6.09C53.9522 6.93 55.0011 7.49 55.6567 7.77ZM18.1589 6.23C17.9622 6.16 17.7656 6.23 17.7 6.37L17.5033 6.72C17.4378 6.93 17.5033 7.14 17.6344 7.21C17.7 7.21 17.7656 7.28 17.7656 7.28C17.8967 7.28 18.0278 7.21 18.0933 7.07L18.29 6.72C18.4211 6.58 18.3556 6.3 18.1589 6.23ZM21.1089 6.02C20.9778 5.88 20.7156 5.95 20.65 6.16L20.3222 6.58C20.1911 6.72 20.2567 7 20.4533 7.07C20.5189 7.14 20.5844 7.14 20.65 7.14C20.7811 7.14 20.9122 7.07 20.9778 6.93L21.24 6.51C21.3056 6.3 21.24 6.09 21.1089 6.02ZM23.9933 5.74C23.8622 5.6 23.6 5.67 23.5344 5.81L23.2067 6.3C23.0756 6.44 23.1411 6.72 23.2722 6.79C23.3378 6.86 23.4033 6.86 23.4689 6.86C23.6 6.86 23.6656 6.79 23.7311 6.72L24.0589 6.23C24.19 6.09 24.1244 5.88 23.9933 5.74ZM26.8778 5.46C26.7467 5.32 26.4844 5.39 26.4189 5.53L26.0256 6.09C25.8944 6.23 25.96 6.51 26.0911 6.58C26.1567 6.65 26.2222 6.65 26.2878 6.65C26.4189 6.65 26.4844 6.58 26.55 6.51L26.9433 5.95C27.0744 5.81 27.0744 5.6 26.8778 5.46ZM29.8278 5.25C29.6967 5.11 29.4344 5.18 29.3689 5.32L28.91 6.02C28.7789 6.16 28.8444 6.44 28.9756 6.51C29.0411 6.58 29.1067 6.58 29.1722 6.58C29.3033 6.58 29.3689 6.51 29.4344 6.44L29.8933 5.74C29.9589 5.6 29.9589 5.32 29.8278 5.25ZM32.7122 4.97C32.5811 4.83 32.3189 4.9 32.2533 5.04L31.6633 5.81C31.5322 5.95 31.5978 6.23 31.7289 6.3C31.7944 6.37 31.86 6.37 31.9256 6.37C32.0567 6.37 32.1222 6.3 32.1878 6.23L32.7778 5.46C32.9089 5.32 32.8433 5.11 32.7122 4.97ZM40.1856 5.74C40.2511 5.81 40.3167 5.81 40.3822 5.81C40.4478 5.81 40.5789 5.74 40.6444 5.67L41.4311 4.69C41.5622 4.55 41.5622 4.27 41.3656 4.2C41.2344 4.06 40.9722 4.06 40.9067 4.27L40.12 5.25C39.9889 5.39 39.9889 5.6 40.1856 5.74ZM37.3667 5.95C37.4322 6.02 37.4978 6.02 37.5633 6.02C37.6944 6.02 37.76 5.95 37.8256 5.88L38.5467 4.97C38.6778 4.83 38.6778 4.62 38.4811 4.48C38.35 4.34 38.0878 4.34 38.0222 4.55L37.3011 5.46C37.17 5.6 37.17 5.81 37.3667 5.95ZM34.5478 6.09C34.6133 6.16 34.6789 6.16 34.7444 6.16C34.8756 6.16 34.9411 6.09 35.0067 6.02L35.6622 5.18C35.7933 5.04 35.7933 4.76 35.5967 4.69C35.4656 4.55 35.2033 4.55 35.1378 4.76L34.4822 5.6C34.3511 5.74 34.3511 6.02 34.5478 6.09ZM44.3156 9.66L43.7256 9.24C43.5944 9.17 41.1689 7.42 38.8089 7.21C38.35 7.14 35.2689 7.07 34.6789 7.84C34.5478 7.98 34.4822 8.19 34.5478 8.4C34.6789 8.96 35.2033 9.17 35.7933 9.38C36.2522 9.52 36.7767 9.73 37.2356 10.08C37.8911 10.57 38.6122 10.85 39.6611 10.85C40.5789 10.85 41.8244 10.57 43.66 10.01L44.3156 9.66ZM44.3156 3.92C44.1844 3.78 43.9222 3.78 43.8567 3.99L43.0044 5.04C42.8733 5.18 42.8733 5.46 43.07 5.53C43.1356 5.6 43.2011 5.6 43.2667 5.6C43.3322 5.6 43.4633 5.53 43.5289 5.46L44.3811 4.41C44.4467 4.27 44.4467 4.06 44.3156 3.92ZM52.9689 7.42C52.9689 7.14 52.5756 6.93 52.1822 6.93C51.7889 6.93 51.4611 7.21 51.4611 7.49C51.4611 7.77 51.8544 7.98 52.2478 7.98C52.6411 7.98 52.9689 7.7 52.9689 7.42Z" fill="#C68C40"/>
</svg>
