<svg width="34" height="20" viewBox="0 0 34 20" fill="none" xmlns="http://www.w3.org/2000/svg">
<g opacity="0.65">
<path d="M17.0346 14.4939C10.6743 14.4939 3.90362 13.2343 1.13379 11.1111L2.63839 15.6095C3.32229 18.3326 8.4516 20 17.0005 20C25.5493 20 30.1315 18.3326 31.3625 15.6455L32.8671 11.1471C30.2341 13.1264 24.1473 14.4939 17.0346 14.4939Z" fill="#C68C40"/>
<path d="M29.1125 8.92094C25.8896 9.82022 21.5687 10.3238 17 10.3238C12.4312 10.3238 8.14583 9.82022 4.8875 8.92094C3.01042 8.38137 0.814583 7.55404 0 6.29504V8.05763C0 8.12958 0 8.20152 0.0354167 8.30943C0.991667 10.4317 7.72083 12.59 17.0708 12.59C26.2792 12.59 32.9375 10.4677 34 8.38137C34 8.27346 34 8.16555 34 8.05763V6.33102C33.15 7.55404 30.9896 8.38137 29.1125 8.92094Z" fill="#C68C40"/>
<path d="M16.9999 0C12.502 0 8.25195 0.467626 5.06445 1.36691C4.63945 1.47482 4.21445 1.61871 3.86029 1.72662C2.8332 2.23022 2.4082 2.69784 2.4082 3.05755C2.4082 4.56835 8.39362 6.22302 16.9999 6.22302C25.7478 6.22302 31.6269 4.56835 31.6269 3.05755C31.6269 2.6259 31.1665 2.19424 30.3519 1.79856C29.9269 1.65468 29.4311 1.47482 28.9353 1.36691C25.7478 0.467626 21.5332 0 16.9999 0Z" fill="#C68C40"/>
<path d="M32.2649 2.66187C32.3003 2.80575 32.3357 2.91366 32.3357 3.05755C32.3357 5.61151 24.6149 6.94244 17.0003 6.94244C9.38574 6.94244 1.70033 5.61151 1.70033 3.05755C1.70033 2.91366 1.73574 2.80575 1.77116 2.66187C0.850325 3.20143 0.354492 3.77697 0.354492 4.31654C0.354492 5.35971 2.12533 6.47482 5.06491 7.26618C8.25241 8.12949 12.467 8.63309 17.0003 8.63309C21.5337 8.63309 25.7482 8.16546 28.9357 7.26618C31.9107 6.47482 33.6462 5.35971 33.6462 4.31654C33.6462 3.77697 33.1503 3.20143 32.2649 2.66187Z" fill="#C68C40"/>
</g>
</svg>
