<svg width="136" height="136" viewBox="0 0 136 136" fill="none" xmlns="http://www.w3.org/2000/svg">
<g opacity="0.8">
<path d="M61.0952 74.3193C60.1126 75.8976 59.1299 77.1117 57.9016 78.4471C58.1473 79.297 58.5158 80.1468 58.6386 80.9966C59.6213 80.6324 59.8669 80.511 60.8496 80.1468C61.3409 78.6899 61.4637 76.3832 61.0952 74.3193Z" fill="url(#paint0_linear)"/>
<path d="M82.2223 33.0414C82.2223 32.92 82.0995 32.7986 81.9767 32.7986C81.8538 32.7986 81.731 32.92 81.731 33.0414L77.4319 82.3321C77.4319 82.4536 77.4319 82.4535 77.5547 82.575C77.5547 82.575 77.6776 82.575 77.6776 82.6964C77.6776 82.6964 77.6775 82.6964 77.8004 82.6964L79.1515 82.3321C79.2744 82.3321 79.3972 82.2107 79.3972 82.0893L82.2223 33.0414Z" fill="url(#paint1_linear)"/>
<path d="M41.3195 64.6069L42.6707 42.6325C42.6707 42.5111 42.5478 42.3896 42.425 42.3896C42.3022 42.3896 42.1793 42.5111 42.1793 42.6325L40.5825 60.4791C40.8282 61.936 41.0738 63.2714 41.3195 64.6069Z" fill="url(#paint2_linear)"/>
<path d="M40.0911 65.4565L38.9856 80.1466C38.9856 80.268 39.1084 80.3894 39.2313 80.3894L40.0911 80.5108C40.2139 80.5108 40.2139 80.5108 40.2139 80.5108C40.2139 80.5108 40.2139 80.3894 40.2139 80.268L40.8281 70.4342C40.9509 69.2201 40.9509 67.8847 40.5824 66.792C40.3368 66.3064 40.2139 65.9422 40.0911 65.4565Z" fill="url(#paint3_linear)"/>
<path d="M89.1012 49.3097C88.6099 47.003 87.1359 45.1819 84.6793 43.8464C79.029 40.5685 69.2024 39.5972 69.0796 39.4758C68.9567 39.4758 68.8339 39.5972 68.8339 39.5972C68.8339 39.7186 68.8339 39.84 68.9567 39.84C68.9567 39.84 71.5362 41.2969 73.7472 44.9391C74.9755 47.003 74.8527 49.1883 73.3787 51.2522C72.8874 51.9806 72.1504 52.5876 71.659 53.0733C71.0449 53.5589 68.2197 55.2586 68.2197 55.2586L68.7111 55.38C68.7111 55.38 71.7819 53.6803 72.0275 53.5589C73.87 52.3448 77.9235 50.0381 82.5911 50.6452C86.5217 51.495 87.5044 52.9519 87.7501 53.6803C87.8729 54.1659 87.8729 54.5301 87.6272 54.8944C87.5044 55.0158 87.3816 55.2586 87.2587 55.38C87.1359 55.5014 87.1359 55.6228 87.2587 55.7442H87.3816C87.5044 55.7442 87.5044 55.7442 87.6272 55.6228C87.7501 55.5014 87.8729 55.2586 87.9957 55.0158C88.8556 53.9231 89.5926 51.7378 89.1012 49.3097Z" fill="url(#paint4_linear)"/>
<path d="M58.0246 53.9233L59.8671 26.2428C59.8671 26.1214 59.7443 26 59.6214 26C59.4986 26 59.3758 26.1214 59.3758 26.2428L57.1648 54.0447C57.4105 54.0447 57.6561 53.9233 58.0246 53.9233Z" fill="url(#paint5_linear)"/>
<path d="M56.7962 75.0481L57.7788 58.4155C57.4103 58.5369 57.0418 58.5369 56.6733 58.6583L55.6907 71.8916C56.182 72.8628 56.5505 73.9555 56.7962 75.0481Z" fill="url(#paint6_linear)"/>
<path d="M55.4452 76.5051L54.094 93.3805C54.094 93.5019 54.094 93.5019 54.2168 93.6233L54.3397 93.7448L55.4452 93.6233C55.568 93.6233 55.6908 93.5019 55.6908 93.3805L56.5506 79.4189C56.1821 78.3262 55.8136 77.355 55.4452 76.5051Z" fill="url(#paint7_linear)"/>
<path d="M78.6606 53.8018C77.4323 52.4663 75.9583 51.3737 74.3615 50.5238C73.7473 51.7379 72.6418 53.0734 70.6765 54.166C71.5363 53.4376 72.0276 52.7092 72.3961 51.9807C72.8875 50.8881 72.2733 49.674 71.1678 49.3098C69.0797 48.7028 66.8687 48.3385 64.2892 48.2171C56.6736 47.9743 51.0233 50.281 47.7068 52.2235C44.0219 54.2874 42.3022 56.4727 42.1794 56.5941L41.4424 57.5654L42.5479 56.9584C42.6707 56.9584 47.0927 52.7092 54.5854 55.2587C66.1317 52.952 75.2213 54.2874 79.5204 54.8945C79.2747 54.4088 78.9062 54.0446 78.6606 53.8018Z" fill="url(#paint8_linear)"/>
<path d="M90.084 91.4377C89.9612 90.8306 89.7155 90.345 89.5927 89.8594C89.2242 88.4025 88.8557 87.4313 88.7328 85.853C88.4872 84.0319 89.2242 82.8179 89.2242 82.8179C89.2242 82.6965 89.2242 82.6965 89.2242 82.5751C89.1013 82.4537 88.9785 82.2108 87.873 81.8466C86.6447 81.361 83.2054 80.8754 78.9062 81.8466C74.7299 82.8179 67.2372 85.3674 67.1143 85.4888H66.9915L67.1143 85.7316C67.1143 85.7316 67.8513 88.4025 66.7458 90.2236C66.1317 91.0735 62.3239 91.6805 57.9019 92.2875L57.4106 92.4089C52.6201 93.0159 49.6721 90.7092 48.8123 88.1597C47.9525 85.7316 48.9351 82.4537 48.9351 82.4537L49.058 82.2108L41.9337 78.9329L34.0724 78.4473L45.1273 82.9393L33.4583 79.6613L33.3354 79.7827V79.9041C33.3354 79.9041 34.0724 81.8466 33.0898 84.1533C32.1071 86.7029 32.7213 87.7955 34.9323 89.4952C35.0551 89.4952 35.0551 89.6166 35.1779 89.6166L44.0218 94.23L38.6172 92.2875C38.9857 94.9584 39.3542 97.508 39.2314 100.3C41.3195 99.9361 43.0392 98.3578 45.1273 97.6294C47.0927 96.9009 49.3036 97.0223 51.1461 97.9936C53.9713 99.4504 56.1823 101.879 59.6216 100.907C60.8499 100.422 62.0782 100.3 63.0609 100.422C63.5522 100.543 64.0435 100.665 64.6577 100.907C64.9034 101.029 65.149 101.029 65.3947 101.15C65.6403 101.272 65.7632 101.272 66.0088 101.393C66.5002 101.514 66.8687 101.636 67.36 101.757C67.9742 101.879 68.4655 102 69.0797 102.121C69.2025 102.121 69.2025 102.121 69.3253 102.121C70.4308 102.121 71.2906 101.636 72.0276 101.029C72.3961 100.786 72.6418 100.543 73.0103 100.422C73.256 100.3 73.5016 100.179 73.7473 100.057C73.9929 100.057 74.3614 100.057 74.6071 100.057C75.7126 100.3 76.9409 100.3 77.9236 100.422C78.1693 100.422 78.2921 100.422 78.5378 100.422C79.2747 100.543 80.1346 100.543 80.7487 100.3C80.9944 100.179 81.3629 100.057 81.6086 99.9361C81.9771 99.8147 82.3456 99.5719 82.8369 99.5719C83.3282 99.4504 83.6967 99.5719 84.188 99.5719C84.3109 99.5719 84.4337 99.5719 84.6794 99.5719C87.9958 96.9009 87.0132 92.8945 86.2762 89.6166V89.4952C85.5392 86.0958 85.0479 83.9105 86.2762 81.6038V81.8466C85.2935 83.7891 87.3817 89.8594 87.3817 89.8594C88.4872 93.1374 88.8557 95.8083 86.7675 98.9648C87.0132 98.8434 87.2588 98.722 87.5045 98.4792C87.6273 98.3578 87.7502 98.3578 87.873 98.2364C90.4525 96.6581 90.4525 92.8945 90.084 91.4377Z" fill="url(#paint9_linear)"/>
<path d="M108.632 67.885L83.4509 81.4825L85.6619 82.3323L108.877 68.3706C109 68.2492 109 68.1278 109 68.0064C108.877 67.885 108.754 67.885 108.632 67.885Z" fill="url(#paint10_linear)"/>
<path d="M68.0969 40.3258C66.3773 37.412 63.0608 35.4696 58.8845 34.9839C50.9004 34.0127 45.1273 36.6836 45.0044 36.805C45.0044 36.805 44.8816 36.9264 44.8816 37.0478C44.8816 37.1692 45.0044 37.2906 45.1273 37.1692C45.1273 37.1692 46.3556 36.9264 48.0752 37.2906C50.2862 37.7763 52.0059 39.1117 53.357 41.1756C54.831 43.7251 54.4625 47.0031 52.4972 49.3098C52.0059 49.674 51.6374 50.0382 51.146 50.5239C51.0232 50.6453 51.0232 50.7667 51.146 50.8881L51.2689 51.0095H51.3917C51.883 50.6453 52.3744 50.2811 52.7429 49.7954C58.6388 44.8178 63.0608 44.2108 65.8859 44.6964C68.3426 45.0606 67.9741 48.0957 67.8512 48.2172C67.8512 48.3386 67.9741 48.46 68.0969 48.46C68.2197 48.46 68.3426 48.46 68.3426 48.3386C69.6937 45.5462 69.4481 42.7539 68.0969 40.3258Z" fill="url(#paint11_linear)"/>
<path d="M59.3757 87.7956C58.5159 83.0608 56.3049 76.1406 51.6373 67.3994C42.0564 49.5528 27.4393 41.9042 24.6142 40.5687C24.3685 40.4473 24.1228 40.3259 24.1228 40.3259L24 40.8116C24 40.8116 24.2457 40.933 24.4913 41.0544C26.5795 42.147 35.1777 47.1247 40.091 60.8435C43.6532 70.6774 42.6705 79.9042 42.6705 80.0256L42.5477 81.3611L43.1619 80.147C43.1619 80.147 44.3902 77.9617 46.724 77.3547C48.4436 76.9905 50.2861 77.5975 52.2514 79.1758C56.0592 82.0895 57.9017 86.0959 58.7616 89.6167C59.0072 89.3739 59.2529 88.6454 59.3757 87.7956Z" fill="url(#paint12_linear)"/>
<path d="M82.7136 34.4985C82.7136 34.4985 87.1356 35.834 89.2237 37.5337C91.3119 39.3548 88.4867 40.0832 88.4867 40.0832C88.4867 40.0832 87.6269 38.2621 85.2931 38.0193C82.9593 37.7765 82.9593 37.7765 82.9593 37.7765C82.9593 37.7765 83.8191 37.6551 83.8191 36.8052C83.8191 35.834 82.7136 34.4985 82.7136 34.4985Z" fill="url(#paint13_linear)"/>
<path d="M88.4871 40.083C88.4871 40.083 87.5044 40.2044 86.7674 40.8114C86.0304 41.4185 86.5218 44.575 91.435 46.2747C96.3483 47.9744 97.6995 47.1245 97.9452 46.3961C98.1908 45.6677 98.1908 45.7891 98.1908 45.7891C98.1908 45.7891 95.4885 47.3674 91.9264 44.575C88.3642 41.7827 88.4871 40.083 88.4871 40.083Z" fill="url(#paint14_linear)"/>
<path d="M98.0677 45.9109C98.0677 45.9109 98.3133 45.4252 97.822 44.6968C97.6992 44.5754 97.3307 44.0898 97.4535 43.847C97.6992 43.1185 99.296 43.1185 99.9102 43.1185C101.138 43.1185 102.244 43.2399 103.349 43.7256C107.526 45.4252 106.912 47.9748 106.912 47.9748C106.912 47.9748 109.123 46.6393 107.034 44.3326C104.946 42.1473 100.647 42.1473 98.9275 42.6329C97.2079 43.1185 96.8394 43.6041 96.8394 43.9684C96.8394 44.3326 98.0677 45.9109 98.0677 45.9109Z" fill="url(#paint15_linear)"/>
<path d="M101.876 49.4313C103.35 49.067 105.684 49.4313 107.403 47.4888C107.403 47.4888 106.421 48.46 103.964 48.5814C101.753 48.7028 99.9104 48.3386 99.5419 49.7955C99.1734 51.2523 101.016 51.6166 101.016 51.6166C101.016 51.6166 99.9104 49.9169 101.876 49.4313Z" fill="url(#paint16_linear)"/>
<path d="M94.5056 81.7256C95.1198 80.1474 93.5229 79.9045 92.2946 79.9045C93.6458 83.9109 88.4868 85.3678 88.4868 85.3678L88.6096 85.732C88.6096 85.732 93.2773 84.8822 94.5056 81.7256Z" fill="url(#paint17_linear)"/>
<path d="M83.3281 75.8979C84.5565 75.048 85.7848 74.0768 86.8903 72.9841C89.7154 69.949 89.7154 67.0352 89.7154 67.0352C89.7154 67.0352 93.5232 68.2493 96.7169 70.556C96.7169 70.4346 96.7169 70.4346 96.7169 70.3132C96.7169 69.949 96.594 69.7062 96.594 69.342C91.9264 66.9138 86.7674 65.457 86.6446 65.457C86.5218 65.457 86.5218 64.6071 86.7674 64.6071C87.0131 64.6071 91.9264 65.8212 96.594 68.2493C96.2255 63.7573 94.7515 60.965 93.5232 59.5081C92.1721 57.9298 89.8382 55.3803 78.0463 55.0161C66.2544 54.6519 54.3397 57.8084 54.2169 57.8084C54.094 57.8084 54.094 57.9298 53.9712 58.0512C53.9712 58.1726 53.9712 58.294 54.094 58.294C54.2169 58.294 62.5695 62.5432 62.8151 73.1055C63.0608 80.8755 59.3758 92.2876 59.253 92.4091C59.253 92.5305 59.253 92.6519 59.3758 92.7733C59.3758 92.7733 59.3758 92.7733 59.4986 92.7733C59.6215 92.7733 59.7443 92.6519 59.7443 92.6519C59.7443 92.5305 62.5695 85.6103 68.2197 81.6039C72.8874 78.4474 80.3802 77.9618 83.3281 75.8979Z" fill="url(#paint18_linear)"/>
<path d="M101.753 73.8336C100.279 71.1627 97.0852 69.3416 94.7514 68.3703C92.2947 67.2777 90.0837 66.6707 90.0837 66.6707C89.9609 66.6707 89.9609 66.6707 89.8381 66.6707C89.7152 66.6707 89.7153 66.7921 89.7153 66.9135C89.7153 66.9135 90.8207 69.9486 88.2413 73.4694C87.0129 75.2905 84.1878 77.233 82.2225 78.447C80.5028 79.6611 79.0288 80.2681 79.0288 80.3895C78.906 80.5109 78.906 80.6323 78.906 80.7537C79.0288 80.8751 83.8193 77.9614 87.3814 77.4758C90.2066 77.1115 94.0144 77.7186 96.1025 79.9039C97.0852 80.8751 97.4537 82.0892 97.208 83.4246C97.0852 84.2745 96.5939 85.0029 95.8569 85.4885C94.5057 86.3384 92.5404 86.5812 91.5577 86.5812C91.4349 86.5812 91.4349 86.9454 91.5577 86.9454C97.945 87.431 101.507 82.0892 102.121 80.0253C102.981 77.7186 102.735 75.6547 101.753 73.8336Z" fill="url(#paint19_linear)"/>
</g>
<circle cx="68" cy="68" r="67" stroke="#BB8A41" stroke-opacity="0.2" stroke-width="2"/>
<defs>
<linearGradient id="paint0_linear" x1="25.3011" y1="99.4997" x2="111.902" y2="43.9441" gradientUnits="userSpaceOnUse">
<stop offset="0.005618" stop-color="#E8CA89"/>
<stop offset="0.1854" stop-color="#DEC187"/>
<stop offset="0.4371" stop-color="#C89D51"/>
<stop offset="0.5955" stop-color="#B9873E"/>
<stop offset="0.8978" stop-color="#E6C78D"/>
<stop offset="1" stop-color="#EEE3D0"/>
</linearGradient>
<linearGradient id="paint1_linear" x1="21.9275" y1="94.2413" x2="108.528" y2="38.6856" gradientUnits="userSpaceOnUse">
<stop offset="0.005618" stop-color="#E8CA89"/>
<stop offset="0.1854" stop-color="#DEC187"/>
<stop offset="0.4371" stop-color="#C89D51"/>
<stop offset="0.5955" stop-color="#B9873E"/>
<stop offset="0.8978" stop-color="#E6C78D"/>
<stop offset="1" stop-color="#EEE3D0"/>
</linearGradient>
<linearGradient id="paint2_linear" x1="8.97422" y1="74.0488" x2="95.575" y2="18.4933" gradientUnits="userSpaceOnUse">
<stop offset="0.005618" stop-color="#E8CA89"/>
<stop offset="0.1854" stop-color="#DEC187"/>
<stop offset="0.4371" stop-color="#C89D51"/>
<stop offset="0.5955" stop-color="#B9873E"/>
<stop offset="0.8978" stop-color="#E6C78D"/>
<stop offset="1" stop-color="#EEE3D0"/>
</linearGradient>
<linearGradient id="paint3_linear" x1="17.4326" y1="87.2337" x2="104.033" y2="31.6782" gradientUnits="userSpaceOnUse">
<stop offset="0.005618" stop-color="#E8CA89"/>
<stop offset="0.1854" stop-color="#DEC187"/>
<stop offset="0.4371" stop-color="#C89D51"/>
<stop offset="0.5955" stop-color="#B9873E"/>
<stop offset="0.8978" stop-color="#E6C78D"/>
<stop offset="1" stop-color="#EEE3D0"/>
</linearGradient>
<linearGradient id="paint4_linear" x1="16.8125" y1="86.2673" x2="103.413" y2="30.7116" gradientUnits="userSpaceOnUse">
<stop offset="0.005618" stop-color="#E8CA89"/>
<stop offset="0.1854" stop-color="#DEC187"/>
<stop offset="0.4371" stop-color="#C89D51"/>
<stop offset="0.5955" stop-color="#B9873E"/>
<stop offset="0.8978" stop-color="#E6C78D"/>
<stop offset="1" stop-color="#EEE3D0"/>
</linearGradient>
<linearGradient id="paint5_linear" x1="7.64707" y1="71.9803" x2="94.2478" y2="16.4247" gradientUnits="userSpaceOnUse">
<stop offset="0.005618" stop-color="#E8CA89"/>
<stop offset="0.1854" stop-color="#DEC187"/>
<stop offset="0.4371" stop-color="#C89D51"/>
<stop offset="0.5955" stop-color="#B9873E"/>
<stop offset="0.8978" stop-color="#E6C78D"/>
<stop offset="1" stop-color="#EEE3D0"/>
</linearGradient>
<linearGradient id="paint6_linear" x1="19.3834" y1="90.2757" x2="105.984" y2="34.7199" gradientUnits="userSpaceOnUse">
<stop offset="0.005618" stop-color="#E8CA89"/>
<stop offset="0.1854" stop-color="#DEC187"/>
<stop offset="0.4371" stop-color="#C89D51"/>
<stop offset="0.5955" stop-color="#B9873E"/>
<stop offset="0.8978" stop-color="#E6C78D"/>
<stop offset="1" stop-color="#EEE3D0"/>
</linearGradient>
<linearGradient id="paint7_linear" x1="27.2971" y1="102.611" x2="113.898" y2="47.0558" gradientUnits="userSpaceOnUse">
<stop offset="0.005618" stop-color="#E8CA89"/>
<stop offset="0.1854" stop-color="#DEC187"/>
<stop offset="0.4371" stop-color="#C89D51"/>
<stop offset="0.5955" stop-color="#B9873E"/>
<stop offset="0.8978" stop-color="#E6C78D"/>
<stop offset="1" stop-color="#EEE3D0"/>
</linearGradient>
<linearGradient id="paint8_linear" x1="15.2101" y1="83.7694" x2="101.811" y2="28.2138" gradientUnits="userSpaceOnUse">
<stop offset="0.005618" stop-color="#E8CA89"/>
<stop offset="0.1854" stop-color="#DEC187"/>
<stop offset="0.4371" stop-color="#C89D51"/>
<stop offset="0.5955" stop-color="#B9873E"/>
<stop offset="0.8978" stop-color="#E6C78D"/>
<stop offset="1" stop-color="#EEE3D0"/>
</linearGradient>
<linearGradient id="paint9_linear" x1="30.4246" y1="107.486" x2="117.025" y2="51.9303" gradientUnits="userSpaceOnUse">
<stop offset="0.005618" stop-color="#E8CA89"/>
<stop offset="0.1854" stop-color="#DEC187"/>
<stop offset="0.4371" stop-color="#C89D51"/>
<stop offset="0.5955" stop-color="#B9873E"/>
<stop offset="0.8978" stop-color="#E6C78D"/>
<stop offset="1" stop-color="#EEE3D0"/>
</linearGradient>
<linearGradient id="paint10_linear" x1="34.3759" y1="113.646" x2="120.977" y2="58.09" gradientUnits="userSpaceOnUse">
<stop offset="0.005618" stop-color="#E8CA89"/>
<stop offset="0.1854" stop-color="#DEC187"/>
<stop offset="0.4371" stop-color="#C89D51"/>
<stop offset="0.5955" stop-color="#B9873E"/>
<stop offset="0.8978" stop-color="#E6C78D"/>
<stop offset="1" stop-color="#EEE3D0"/>
</linearGradient>
<linearGradient id="paint11_linear" x1="8.25332" y1="72.9253" x2="94.8542" y2="17.3697" gradientUnits="userSpaceOnUse">
<stop offset="0.005618" stop-color="#E8CA89"/>
<stop offset="0.1854" stop-color="#DEC187"/>
<stop offset="0.4371" stop-color="#C89D51"/>
<stop offset="0.5955" stop-color="#B9873E"/>
<stop offset="0.8978" stop-color="#E6C78D"/>
<stop offset="1" stop-color="#EEE3D0"/>
</linearGradient>
<linearGradient id="paint12_linear" x1="14.1829" y1="82.1686" x2="100.784" y2="26.6129" gradientUnits="userSpaceOnUse">
<stop offset="0.005618" stop-color="#E8CA89"/>
<stop offset="0.1854" stop-color="#DEC187"/>
<stop offset="0.4371" stop-color="#C89D51"/>
<stop offset="0.5955" stop-color="#B9873E"/>
<stop offset="0.8978" stop-color="#E6C78D"/>
<stop offset="1" stop-color="#EEE3D0"/>
</linearGradient>
<linearGradient id="paint13_linear" x1="14.1499" y1="82.1175" x2="100.751" y2="26.5619" gradientUnits="userSpaceOnUse">
<stop offset="0.005618" stop-color="#E8CA89"/>
<stop offset="0.1854" stop-color="#DEC187"/>
<stop offset="0.4371" stop-color="#C89D51"/>
<stop offset="0.5955" stop-color="#B9873E"/>
<stop offset="0.8978" stop-color="#E6C78D"/>
<stop offset="1" stop-color="#EEE3D0"/>
</linearGradient>
<linearGradient id="paint14_linear" x1="18.997" y1="89.6727" x2="105.598" y2="34.117" gradientUnits="userSpaceOnUse">
<stop offset="0.005618" stop-color="#E8CA89"/>
<stop offset="0.1854" stop-color="#DEC187"/>
<stop offset="0.4371" stop-color="#C89D51"/>
<stop offset="0.5955" stop-color="#B9873E"/>
<stop offset="0.8978" stop-color="#E6C78D"/>
<stop offset="1" stop-color="#EEE3D0"/>
</linearGradient>
<linearGradient id="paint15_linear" x1="22.6558" y1="95.377" x2="109.257" y2="39.8213" gradientUnits="userSpaceOnUse">
<stop offset="0.005618" stop-color="#E8CA89"/>
<stop offset="0.1854" stop-color="#DEC187"/>
<stop offset="0.4371" stop-color="#C89D51"/>
<stop offset="0.5955" stop-color="#B9873E"/>
<stop offset="0.8978" stop-color="#E6C78D"/>
<stop offset="1" stop-color="#EEE3D0"/>
</linearGradient>
<linearGradient id="paint16_linear" x1="24.4107" y1="98.1118" x2="111.011" y2="42.556" gradientUnits="userSpaceOnUse">
<stop offset="0.005618" stop-color="#E8CA89"/>
<stop offset="0.1854" stop-color="#DEC187"/>
<stop offset="0.4371" stop-color="#C89D51"/>
<stop offset="0.5955" stop-color="#B9873E"/>
<stop offset="0.8978" stop-color="#E6C78D"/>
<stop offset="1" stop-color="#EEE3D0"/>
</linearGradient>
<linearGradient id="paint17_linear" x1="36.5266" y1="116.999" x2="123.127" y2="61.4431" gradientUnits="userSpaceOnUse">
<stop offset="0.005618" stop-color="#E8CA89"/>
<stop offset="0.1854" stop-color="#DEC187"/>
<stop offset="0.4371" stop-color="#C89D51"/>
<stop offset="0.5955" stop-color="#B9873E"/>
<stop offset="0.8978" stop-color="#E6C78D"/>
<stop offset="1" stop-color="#EEE3D0"/>
</linearGradient>
<linearGradient id="paint18_linear" x1="23.5389" y1="96.7527" x2="110.14" y2="41.1971" gradientUnits="userSpaceOnUse">
<stop offset="0.005618" stop-color="#E8CA89"/>
<stop offset="0.1854" stop-color="#DEC187"/>
<stop offset="0.4371" stop-color="#C89D51"/>
<stop offset="0.5955" stop-color="#B9873E"/>
<stop offset="0.8978" stop-color="#E6C78D"/>
<stop offset="1" stop-color="#EEE3D0"/>
</linearGradient>
<linearGradient id="paint19_linear" x1="34.193" y1="113.36" x2="120.794" y2="57.8045" gradientUnits="userSpaceOnUse">
<stop offset="0.005618" stop-color="#E8CA89"/>
<stop offset="0.1854" stop-color="#DEC187"/>
<stop offset="0.4371" stop-color="#C89D51"/>
<stop offset="0.5955" stop-color="#B9873E"/>
<stop offset="0.8978" stop-color="#E6C78D"/>
<stop offset="1" stop-color="#EEE3D0"/>
</linearGradient>
</defs>
</svg>
