<svg width="52" height="34" viewBox="0 0 52 34" fill="none" xmlns="http://www.w3.org/2000/svg">
<path opacity="0.55" d="M48.0309 19.676C47.9224 19.4639 48.1395 18.8805 48.0852 18.8275L47.8139 18.8805C47.7596 18.7744 47.8139 18.6153 47.8681 18.5623C47.9767 18.2971 47.7053 17.9259 47.8681 17.6077C48.0852 17.2894 48.845 17.2364 49.0079 16.9182C49.1164 16.7061 48.845 16.3348 49.0621 16.0696C49.3878 15.6984 51.3958 15.9105 51.7757 15.4862C51.9385 15.2741 51.5586 14.9029 51.6129 14.7968C51.6129 14.6907 51.83 14.7438 51.83 14.6907C51.8843 14.5316 51.7215 14.2664 51.7757 14.0543C51.7757 13.9482 52.0471 13.63 51.9928 13.5239C51.8843 13.3648 51.6129 13.63 51.5044 13.577C51.3958 13.5239 51.6129 13.3648 51.6129 13.2588C51.6129 13.0997 51.5044 12.9936 51.3958 12.8875C51.3416 12.7815 51.2873 12.6224 51.1787 12.5163C50.9617 12.3041 50.5817 12.6224 50.5275 12.3572C50.5275 12.1981 50.636 11.4556 50.8531 11.4025C50.9074 11.4025 51.0159 11.4025 51.0702 11.4025C51.1245 11.4025 51.233 11.4556 51.2873 11.4025C51.3958 11.4025 51.6129 10.9252 51.4501 10.9252C51.0702 10.8722 50.636 11.2434 50.3104 10.8192C49.9305 10.3949 50.7446 10.5009 50.8531 10.2888L50.9074 9.91756C51.0702 9.54632 51.5044 9.33418 51.1787 8.90989C51.0702 8.75079 50.8531 8.64472 50.7446 8.48561C50.636 8.27347 51.0702 7.95526 50.8531 7.84919C50.4189 7.63705 50.3647 8.27347 50.039 8.27347C49.442 8.32651 49.442 7.74312 49.1707 7.69009C48.8993 7.58402 48.6279 7.95526 48.3023 7.74312C48.1938 7.63705 48.1395 7.42491 48.0309 7.37188C47.8139 7.21277 47.7053 7.79616 47.3797 7.79616C46.9998 7.79616 46.7284 7.26581 46.4571 7.21277C46.3485 7.15974 46.1314 7.47795 45.9686 7.47795C45.7515 7.47795 45.5344 7.15974 45.3173 7.1067C44.6118 7.00063 45.3716 8.22044 44.6661 8.0083C44.5033 7.95526 44.3947 7.58402 44.2319 7.53098C43.9063 7.31884 43.4178 7.37188 43.2007 6.9476L43.1464 6.57635C43.0379 6.47028 42.8751 6.52332 42.7665 6.41725C42.658 6.31118 42.7123 6.15207 42.6037 6.09904C42.4952 6.046 42.2238 6.31118 42.1153 6.36421C41.7354 6.57635 41.2469 6.73546 40.9213 7.00063C40.7585 7.1067 40.7042 7.42491 40.4871 7.53098C40.1615 7.69009 40.0529 7.26581 39.7816 7.21277C39.5645 7.21277 39.6188 7.53098 39.4017 7.37188C39.2931 7.31884 39.2388 7.05367 39.076 7.00063C38.3705 6.73546 37.9363 7.69009 37.4479 7.37188C36.4167 6.78849 37.0137 6.15207 36.7423 5.83386C36.5795 5.62172 36.5252 5.40958 36.3624 5.19744L36.1453 5.09137C36.1453 4.9853 36.3624 4.87923 36.2539 4.77316C36.0911 4.61405 35.9282 4.82619 35.7111 4.77316C35.4941 4.72012 35.5483 4.29584 35.3855 4.18977C35.1684 3.97763 34.4629 4.50798 34.1915 4.50798C34.1373 4.50798 33.8116 4.13674 33.3232 4.29584C33.2689 4.29584 32.9433 4.66709 32.889 4.40191C32.889 4.34888 33.1603 4.13674 33.0518 3.9246L32.7262 3.76549C32.7262 3.71246 32.7804 3.34121 32.7262 3.18211C32.6176 3.023 32.1834 2.91693 32.292 2.65175C32.4005 2.43961 32.9975 2.49265 33.1061 2.28051C33.3774 1.90926 32.1834 1.48498 32.0749 1.43195C31.8035 1.27284 31.9664 0.848561 31.9121 0.689456C31.9121 0.636421 31.8035 0.636421 31.7493 0.583386C31.695 0.583386 31.2065 0 31.098 0C30.8809 0 30.5553 0.424281 30.3382 0.424281L30.1754 0.159105C30.0668 0.10607 29.4698 0.159105 29.3613 0.21214C29.307 0.265175 29.2527 0.318211 29.1985 0.371246C29.0357 0.583386 28.9271 0.848562 28.7643 0.901597L28.3301 0.848562C28.113 0.848562 27.8959 0.795526 27.6789 0.795526C27.6246 0.795526 27.516 0.795526 27.4618 0.795526C27.4075 0.795526 27.2989 0.742491 27.2447 0.795526C27.0276 0.848562 27.2447 1.48498 27.1904 1.59105C27.0819 1.85623 26.4306 2.33354 26.1592 2.22747L26.0507 1.9623L25.7793 2.01533C25.508 2.01533 24.911 1.9623 24.6396 2.1214L24.3682 2.43961C24.314 2.43961 24.2597 2.43961 24.2054 2.43961C24.0969 2.43961 23.9883 2.43961 23.8798 2.43961C23.8255 2.43961 23.7712 2.38658 23.717 2.43961C23.6627 2.43961 23.6627 2.49265 23.6627 2.54568C23.4456 2.81086 23.717 2.43961 23.717 2.75782C23.717 2.75782 23.0657 3.44728 22.9572 3.65942C22.9572 3.71246 22.9572 3.76549 22.9572 3.81853V4.13674C22.9029 4.34888 22.6315 4.61405 22.7401 4.82619C22.8486 5.09137 23.3371 5.56869 23.1743 5.8869L23.0114 6.15207C22.523 6.25814 22.3059 5.40958 21.8717 5.30351C21.4918 5.19744 21.2747 5.56869 21.0034 5.62172C20.8405 5.62172 20.6777 5.40958 20.5149 5.40958C20.135 5.40958 19.9722 6.15207 19.6466 6.09904C19.2667 6.046 19.3752 5.19744 18.9953 5.03833C18.6697 4.87923 18.0184 5.56869 17.9641 5.78083L18.0184 6.046C18.0184 6.09904 17.9098 5.99297 17.8556 5.99297C17.5842 5.8869 17.747 5.56869 17.5299 5.46261C17.2043 5.25047 17.0958 5.67476 16.8787 5.67476C16.6616 5.67476 16.6073 5.19744 16.553 5.1444C16.4988 5.09137 16.1731 5.56869 16.1189 5.62172C15.8475 5.78083 15.6304 5.40958 15.4676 5.46261C15.1962 5.51565 15.4676 5.99297 15.1962 6.15207L14.9791 6.046C14.8706 5.99297 15.4133 5.35654 14.4907 5.51565C14.3821 5.51565 14.0022 5.8869 13.8394 5.72779C13.7852 5.67476 13.948 5.51565 13.8937 5.40958C13.8394 5.35654 13.6766 5.51565 13.6223 5.40958C13.4595 5.25047 13.7852 5.03833 13.4052 4.9853C13.2424 4.9853 13.0253 5.09137 12.8625 5.09137C12.6454 5.09137 10.8545 4.82619 10.6916 4.77316C10.5831 4.72012 10.5831 4.61405 10.4745 4.56102C10.0404 4.45495 9.44337 4.66709 8.95492 4.66709C8.62929 4.66709 8.24938 4.50798 7.92375 4.50798C7.48957 4.56102 7.10967 4.82619 6.72976 4.93226C6.40413 4.93226 5.96995 4.77316 5.75286 4.93226C5.53577 5.03833 5.04732 6.31118 4.55887 6.25814C4.45033 6.25814 4.23324 5.93993 3.79906 5.99297C3.36488 6.09904 3.9076 6.47028 3.58197 6.52332H3.5277C3.58197 6.57635 3.58197 6.62939 3.63624 6.68242L3.69051 6.73546C3.69051 6.73546 3.69051 6.78849 3.74479 6.78849V6.84153C3.74479 6.89456 3.79906 6.89456 3.79906 6.9476L3.74479 7.31884C3.74479 7.37188 3.69051 7.42491 3.74479 7.53098C3.79906 7.79616 4.23324 8.22044 4.39605 8.48561C4.61314 8.80383 5.21014 9.49328 5.21014 9.49328C5.15586 9.59935 4.66741 9.38721 4.72169 9.75846C4.77596 10.1297 5.31868 10.3418 5.26441 10.7131C5.21014 11.5086 4.55887 11.1904 4.07042 11.5086C3.79906 11.6677 2.11662 13.8952 1.84526 14.2664C0.922628 15.7514 1.51962 14.8498 1.62817 16.2818C1.62817 16.3878 1.41108 16.7061 1.46535 16.8121C1.5739 16.9712 2.33371 17.3425 1.89953 17.3955C1.84526 17.3955 1.79098 17.3955 1.79098 17.3955C1.79098 17.3955 1.79098 17.3955 1.73671 17.3955C1.68244 17.3955 1.62817 17.3955 1.5739 17.3955C1.51962 17.3955 1.41108 17.3955 1.35681 17.3425C1.30253 17.3425 1.19399 17.2894 1.13972 17.2894C1.13972 17.6077 0.814084 18.0319 0.705539 18.4032C0.542723 19.0926 0.217089 19.0396 0.0542723 19.4108C0.0542723 19.4639 0 19.5169 0 19.5169V19.57V19.623V19.676V19.7291V19.7821C0 19.9412 0.0542723 20.0473 0.0542723 20.1003C0.759812 20.2594 0.325634 20.5776 0.759812 20.7898C0.868356 20.8428 1.03117 20.7367 1.08545 20.7898C1.24826 20.8958 1.24826 21.3731 1.46535 21.4262C1.68244 21.5322 1.84526 21.2671 2.11662 21.4792C2.27943 21.5853 2.17089 22.0096 2.33371 22.0626C2.44225 22.1156 2.44225 21.9035 2.44225 21.9035C2.44225 21.6383 2.60507 21.9565 2.71361 21.9035C2.98497 21.8505 2.82216 21.3731 3.09352 21.3201C3.36488 21.2671 3.79906 21.8505 4.07042 21.8505L4.28751 21.6914C4.61314 21.6383 4.93878 22.0096 5.26441 22.0096C5.42723 22.0096 5.4815 21.8505 5.59004 21.8505C5.80713 21.8505 6.07849 22.1156 6.34985 22.1156C6.62122 22.1156 6.94685 21.8505 7.21821 21.8505C7.59812 21.8505 8.24938 22.7521 8.35793 22.8051C8.90065 22.9642 9.06347 22.2217 9.28056 22.0096C9.76901 21.5853 11.6685 21.6383 11.9942 21.3731C12.2655 21.161 12.157 20.6837 12.3741 20.4715C12.4283 20.4185 12.4826 20.3655 12.5369 20.3124C12.5912 20.3124 12.5912 20.2594 12.6454 20.2594C12.6997 20.2594 12.6997 20.2064 12.754 20.2064C12.8083 20.2064 12.8625 20.1533 12.9168 20.1533H12.9711C13.0253 20.1533 13.1339 20.1533 13.1882 20.1003L13.2424 19.9942C13.4595 19.57 13.2967 19.7291 13.6223 19.8351C13.6766 19.8351 13.7309 19.8882 13.7852 19.8351C13.8394 19.7291 13.6223 19.623 13.6766 19.4639C13.7309 19.4108 14.7078 19.5169 15.0334 19.4108C15.5761 19.2517 15.7932 18.7214 16.4445 18.9335C16.6616 18.9866 17.3671 19.3048 17.4757 19.4639L17.5299 19.7291C17.6928 19.8351 18.1269 19.5169 18.2898 19.57C18.5068 19.676 18.0184 20.3655 18.4526 19.8882C18.6154 19.7291 18.6154 20.2594 18.7239 20.2064C19.7008 19.1457 19.8094 20.5776 20.2978 20.7367C20.6235 20.8428 20.4606 20.3124 20.7863 20.4715C21.4375 20.7898 20.8948 21.8505 20.9491 22.3808C21.0034 22.699 21.4375 22.8051 21.7089 23.0703L21.926 23.3354C22.3602 23.3885 21.8717 22.8051 22.3602 23.0703C22.523 23.1763 22.5773 23.8128 22.4687 23.9188C22.4144 23.9719 22.3059 23.9719 22.2516 24.0249C22.0888 24.237 22.5773 24.0779 22.6315 24.131C22.6858 24.184 22.6315 24.3961 22.6315 24.4492C22.6315 24.5022 22.5773 24.5553 22.6315 24.6083C23.0114 25.1917 23.6627 24.3961 23.9341 25.8281C23.9341 25.9342 24.0426 26.0933 23.9883 26.1993C23.9341 26.2524 23.8255 26.2524 23.7712 26.3054C23.717 26.5175 24.5311 26.6767 24.5311 26.7827C24.5311 26.7827 24.0969 26.9418 24.0426 26.9418C23.9341 26.9949 23.7712 27.26 23.6627 27.154C23.5542 27.1009 23.4456 26.5706 23.2285 26.7827C23.12 26.8888 23.2285 27.154 23.0114 27.154C22.7943 27.154 22.5773 26.6767 22.523 26.7297L22.3059 27.0479C22.2516 27.0479 22.2516 26.8358 22.1974 26.8358C22.0345 26.8888 22.0345 27.26 21.8717 27.3131C21.7632 27.3661 21.926 26.5175 21.6546 26.5706C21.4918 26.6236 21.0034 26.9949 20.9491 27.154C20.8405 27.5783 21.329 27.8965 21.3833 28.1086C21.4375 28.2147 21.1662 28.4268 21.1662 28.5859C21.1662 28.692 21.329 28.9572 21.2747 29.0102C21.2205 29.1163 20.8948 29.1163 20.7863 29.2223C20.4606 29.4345 20.8948 29.5936 20.6777 29.8057C20.4606 30.0709 20.1893 30.1239 20.0265 30.4421C19.9722 30.4952 20.2436 31.2907 20.0265 31.2907C19.8636 31.3437 19.6466 31.1846 19.4295 31.1846C19.2667 31.1846 19.3752 31.6089 19.2124 31.5559C19.5923 31.662 19.3209 31.8211 19.5923 32.0332C19.9179 32.2984 20.5692 32.3514 21.0034 32.2984C21.4375 32.2984 20.732 32.1393 21.0576 31.9271C21.2205 31.8211 21.5461 31.9271 21.7089 31.8741C22.0345 31.768 22.3059 31.3437 22.6315 31.2907C23.2828 31.1316 23.7712 31.5028 23.8255 32.0862C24.2597 32.0332 23.9883 31.2907 23.9341 31.0786C23.9341 31.0255 23.9341 30.9725 23.8798 30.9725L23.8255 31.0255C23.717 31.1316 23.9883 31.1846 23.8255 31.0255C23.8255 31.0255 23.8255 31.0255 23.7712 30.9725C23.6084 30.8664 23.6084 31.4498 23.4456 31.0255L23.6084 30.7073C23.5542 30.6543 23.4456 30.7073 23.3913 30.6543C23.2285 30.6012 23.3371 29.8588 23.3913 29.7527C23.3913 29.6997 23.2828 29.5405 23.3371 29.4875C23.6627 29.2223 23.5542 30.23 23.7712 30.283C24.0969 30.3891 23.8798 30.177 23.9341 30.1239C23.9883 30.0709 24.1512 30.23 24.2054 30.0179C24.2054 29.9648 23.6627 29.5405 24.2054 29.5936C24.314 29.5936 24.3682 29.8588 24.3682 29.8057C24.5853 29.4345 23.9883 29.1693 24.7481 29.3814C24.911 29.4345 24.6939 28.9041 24.8567 28.9572C24.9652 29.0102 24.8567 29.3284 24.9652 29.3284C25.1281 29.3284 26.4306 27.207 26.3763 26.9949C26.3763 26.9418 26.3763 26.9418 26.322 26.9418C26.2135 26.9418 26.2135 26.8888 26.2678 26.8888C26.2678 26.8888 26.322 26.8888 26.322 26.9418H26.3763C26.3763 26.9418 26.4306 26.9418 26.4849 26.9418C26.5934 26.9418 26.5934 26.7827 26.5934 26.7297C26.702 26.5175 26.322 26.1463 26.5391 25.9872C26.8105 25.8281 27.3532 25.5099 27.6789 25.4568H27.7331C27.7331 25.4568 27.7874 25.4568 27.8417 25.4568C27.8959 25.4568 27.8959 25.4568 27.9502 25.4568C28.0588 25.4568 28.113 25.4568 28.2216 25.4568C28.3301 25.4568 28.3844 25.4038 28.4387 25.4038C28.4929 25.4038 28.4929 25.3508 28.4929 25.3508V25.2977C28.4929 25.2447 28.4929 25.2447 28.5472 25.1917V25.1386C28.5472 25.0856 28.5472 25.0856 28.4929 25.0326C28.4387 24.8204 28.3301 24.9265 28.2758 24.7144C28.2758 24.6083 28.4387 25.0326 28.4929 24.9795L28.7643 24.5552V24.6083C28.71 24.7674 28.6015 24.9795 28.5472 25.1386C28.5472 25.1917 28.5472 25.2447 28.4929 25.2977V25.3508L28.7643 25.4568C29.0899 25.2447 28.4387 25.2977 28.9271 25.1917C29.2527 25.1386 29.4156 25.3508 29.7412 25.0856C29.904 24.9265 29.5784 24.6083 29.5241 24.4492C29.4698 24.237 29.6327 24.3431 29.7412 24.184C29.904 23.9188 29.5784 23.9188 29.5241 23.8658L29.5784 23.5476C29.4698 23.4945 29.307 23.7597 29.2527 23.4415L29.307 23.2294C29.307 23.2294 29.307 23.1763 29.2527 23.1763C29.2527 23.1763 29.2527 23.1233 29.1985 23.1233C29.1442 23.0172 29.0357 22.9642 28.9814 22.8581C28.9271 22.8051 28.8728 22.8051 28.8728 22.7521V22.699C28.8728 22.699 28.8728 22.699 28.8728 22.646V22.5929C28.8728 22.5929 28.8728 22.593 28.8728 22.646C28.8728 22.699 28.9271 22.7521 28.9814 22.8581C29.0357 22.9112 29.0899 22.9112 29.1442 22.9642C29.1985 22.9642 29.1985 23.0172 29.2527 23.0172C29.2527 23.0172 29.307 23.0172 29.307 23.0703C29.3613 23.1233 29.3613 23.1233 29.4156 23.1763C29.4156 23.2294 29.4156 23.2824 29.4156 23.3354C29.4156 23.3885 29.3613 23.4945 29.4156 23.5476H29.7955C29.8497 23.6006 29.6327 23.7067 29.6869 23.7597C29.6869 23.7597 29.9583 23.7597 29.9583 23.8658C30.0126 24.2901 29.4698 24.6083 30.1211 25.0856C30.1211 25.0856 30.4467 25.0856 30.4467 25.1386L30.5553 25.3508L30.8266 25.1386C30.9352 25.1386 30.9895 25.2977 31.098 25.2977C31.2608 25.2977 31.5322 25.0326 31.695 24.9795C31.8035 24.9795 31.5322 25.1386 31.4779 25.1917C31.3151 25.4568 31.5322 25.669 31.0437 25.6159C30.2839 25.5099 29.5784 25.722 28.8728 25.6159C28.7643 25.6159 28.71 25.4038 28.6558 25.5099C28.6015 25.669 29.0899 25.8811 29.1985 25.9342C29.2527 25.9872 29.2527 25.9872 29.2527 25.9872C29.2527 25.9872 29.2527 25.9872 29.2527 25.9342V25.8811C29.2527 25.8281 29.2527 25.7751 29.3613 25.7751C29.4698 25.722 30.3382 25.9342 30.3925 25.9872C30.7181 26.3584 29.5784 26.2524 29.5784 26.5175C29.6327 26.8888 29.8497 26.5175 29.904 26.4645C29.9583 26.4115 30.3382 26.6236 30.4467 26.6767C30.6096 26.7297 30.6638 26.8358 30.8809 26.8888C30.9895 26.8888 31.0437 26.7297 31.1523 26.8358C31.2065 26.8888 31.098 26.9418 31.098 26.9949C31.098 27.0479 31.1523 27.1009 31.1523 27.154C31.2608 27.207 31.8035 27.3661 31.9664 27.3131C32.2377 27.26 32.4548 26.9949 32.6719 26.8888C32.889 26.8358 33.2146 26.9418 33.4317 26.8358L33.486 26.7827C33.486 26.7297 33.4317 26.6767 33.486 26.6236C33.5403 26.5706 33.6488 26.7297 33.7573 26.7297C33.9744 26.6767 34.1372 25.9872 34.083 26.6236C34.083 26.6767 34.5172 26.8888 34.7342 26.9418C35.1141 27.0479 34.9513 26.4645 35.1142 26.5175C35.6026 26.6236 35.277 27.26 35.3855 27.3661C35.4941 27.4722 35.7111 27.207 35.8197 27.3131C35.9282 27.3661 35.6026 27.4722 35.6026 27.4722L35.6569 27.6843L35.4398 27.5783C34.8971 27.6843 35.6569 27.6313 35.277 27.8434C35.0599 27.9495 35.0056 27.8965 34.7342 28.0556C34.4086 28.3207 34.4629 28.3207 34.1372 28.2147C34.083 28.2147 34.2458 28.3738 34.2458 28.4268C34.2458 28.4798 34.1372 28.4798 34.083 28.5329C33.5945 28.7981 33.4317 28.8511 33.2689 29.3284C33.2146 29.4875 32.292 29.6997 32.292 30.23C32.292 30.9725 33.3774 30.1239 33.7031 30.23C34.083 30.3361 34.4086 30.8664 34.8428 30.9195C35.1142 30.9725 34.9513 30.6012 35.8197 30.9725C36.4167 31.2377 35.9282 32.2984 35.9282 32.3514C35.9282 32.4575 36.091 32.6166 36.091 32.6696C36.091 32.7227 36.0911 32.7757 36.0368 32.8287C36.0368 32.8818 35.9825 32.9348 36.0368 32.9878C36.0911 33.0409 36.1996 32.9878 36.1996 33.0409C36.1996 33.0409 35.6026 33.253 35.6026 33.306C35.7654 33.5712 36.1453 33.5712 36.3624 33.6243C36.5252 33.6773 36.6338 33.9425 36.8509 33.9955C37.4479 34.0485 38.0449 33.6243 38.3705 33.2C38.4248 33.1469 38.3705 32.9878 38.4248 32.9878C38.479 32.9348 38.5876 32.9878 38.6418 32.9348C38.8047 32.7757 38.7504 32.3514 38.8589 32.1393C39.076 31.8211 39.9987 31.3968 40.3786 31.3437C40.4871 31.3437 40.7042 31.6089 40.7585 31.5028C40.867 31.3968 40.8127 31.1846 40.867 31.0255C41.0298 30.7604 41.4097 30.7073 41.464 30.6013C41.6811 30.3361 41.3555 30.1239 41.7896 29.8057C42.1695 29.5405 42.658 29.9648 42.9294 30.177C43.0379 30.283 43.4178 29.8588 43.5264 29.8588C43.852 29.7527 44.1776 29.9118 44.5033 29.6466C44.9917 29.2754 44.1233 28.9572 44.5033 28.5329C44.5575 28.4798 44.6661 28.5329 44.7203 28.4798C44.7746 28.4268 44.6118 28.3738 44.6118 28.2677C44.6118 28.1616 45.2631 28.3207 45.046 27.9495C44.9917 27.8434 43.5264 27.8434 43.4721 27.8965C43.3093 28.0025 43.3093 28.4268 43.1464 28.4798C42.8751 28.5329 42.5494 28.0556 42.4952 28.1086C42.2238 28.4268 42.3324 29.0632 41.6811 29.0632C41.5183 29.0632 41.3555 28.9572 41.1384 28.7981C41.4097 29.0102 41.5726 29.1693 41.5183 29.2223C41.3555 29.3284 40.1072 29.0632 40.1072 28.745C40.1072 28.639 40.3243 28.5859 40.3243 28.4798C40.4871 27.6843 39.1846 27.7374 39.0218 27.5252C38.9132 27.3661 39.1303 27.154 38.8047 27.3131C38.7504 27.3131 38.6961 27.3661 38.6418 27.3661C38.5876 27.3661 38.6418 27.3131 38.6418 27.26C38.6418 27.207 38.6961 27.154 38.6418 27.154C38.5876 27.154 38.5333 27.207 38.479 27.207C38.4248 27.207 38.3162 27.207 38.3162 27.154C38.2619 27.0479 38.5876 26.8358 38.4248 26.7827C37.9363 26.4115 38.479 27.154 38.0991 27.154C37.8278 27.154 38.0991 26.9418 37.9363 26.8888C37.9363 26.8888 37.6649 27.26 37.6107 27.154C37.5021 26.6236 37.882 27.3661 37.7735 26.8358C37.7192 26.5706 37.4479 26.6767 37.3936 26.6767C37.3393 26.6767 37.3936 26.4645 37.285 26.4645C37.1765 26.4645 37.285 26.6767 37.1765 26.6767C36.8509 26.7297 37.1765 26.4645 36.8509 26.5175C36.8509 26.5175 37.285 26.8358 37.068 26.9949C37.0137 27.0479 36.9594 26.8888 36.9594 26.8358C37.0137 26.6767 36.5795 26.4115 36.4167 26.3584C35.9825 26.2524 36.5795 26.6767 36.2539 26.6236C35.9282 26.6236 36.0368 26.2524 35.9282 26.1463C35.7654 26.0402 35.8197 26.6236 35.4941 26.1993C35.4398 26.1463 35.3855 26.0402 35.3855 26.0402C35.6026 25.9872 35.9282 25.8811 36.1453 25.9342C36.3081 25.9342 36.6338 26.3054 36.7966 26.2524C36.9051 26.1993 36.688 26.0933 36.6338 25.9872C36.5795 25.669 36.9594 26.3054 37.0137 25.9872C37.0137 25.9342 36.688 25.5629 36.7966 25.5099C37.068 25.4038 37.285 26.1463 37.3936 26.1993C37.5021 26.3054 37.2308 25.8811 37.3393 25.7751C37.4479 25.616 37.8278 25.9872 37.9363 25.9872C38.0991 25.9342 37.9363 25.5099 38.1534 25.8811C38.3705 26.1993 37.3936 26.0933 37.7735 26.5175C37.8278 26.5706 37.9363 26.5175 37.9906 26.5706C38.8589 26.7297 38.0449 25.9342 38.4248 25.669C38.5333 25.616 38.9675 25.7751 38.8589 25.9342C38.8589 25.9342 38.5876 26.0402 38.6418 26.1463C38.6961 26.4115 39.1846 26.4645 39.2388 26.7827L39.1846 27.154C39.1846 27.26 39.4017 26.9418 39.4559 27.0479C39.5102 27.1009 39.5645 27.154 39.673 27.26C39.1846 26.6236 38.8589 25.9342 38.9132 25.6159C38.9675 25.2447 39.2931 25.4038 39.5645 25.1917C40.1072 24.7674 39.7273 24.3431 39.7816 24.0779C39.7816 24.0249 39.8901 23.9719 40.1615 24.2901C40.2157 24.3431 40.1072 24.5552 40.1615 24.6613C40.2157 24.7144 40.3786 24.5553 40.4328 24.6083V24.6613C40.4328 24.6083 40.4871 24.5552 40.4871 24.5022C40.4871 24.5022 40.4871 24.5022 40.4871 24.4492C40.4871 24.3961 40.5414 24.3961 40.5414 24.3431V24.2901C40.5414 24.237 40.5956 24.237 40.5956 24.184V24.131C40.5956 24.0779 40.6499 24.0779 40.7042 24.0249C40.8127 23.9188 41.0298 23.9188 41.1384 23.8128C41.4097 23.5476 41.4097 23.1763 41.7896 22.9642C41.9525 22.8581 42.5495 22.699 42.658 22.699C43.3635 22.8581 42.3324 22.7521 42.8208 22.9642C42.9294 23.0172 43.0922 22.4338 43.1464 22.3808C43.3093 22.2217 43.7434 22.0626 43.9605 22.0096C44.5575 21.9035 44.3404 22.4869 44.3404 22.5399C44.3947 22.5929 44.3947 22.3278 44.449 22.2217C44.5575 21.9035 44.5033 21.7444 44.7746 21.5322C44.9374 21.3731 45.2631 21.0549 45.4259 21.0019C45.5887 20.9489 45.6972 21.3201 45.8058 21.214C45.9143 21.0019 45.9686 20.7367 46.0771 20.4715C46.1314 20.3655 46.1857 20.2064 46.2942 20.1533C46.4571 20.0473 47.8681 19.7821 47.9767 19.8351C48.0309 19.8351 47.9767 19.8882 47.9767 19.9412C47.9767 19.9942 47.9224 20.0473 47.9767 20.0473C47.9767 20.0473 47.9767 20.0473 48.0309 19.9942C48.0309 19.9942 48.0309 19.9942 48.0309 19.9412C48.0309 19.9412 48.0309 19.8882 48.0852 19.8882C47.9767 19.9412 48.0309 19.7821 48.0309 19.676Z" fill="#C68C40"/>
</svg>
