<svg width="39" height="13" viewBox="0 0 39 13" fill="none" xmlns="http://www.w3.org/2000/svg">
<path fill-rule="evenodd" clip-rule="evenodd" d="M10.3487 12.2553H7.05506L4.58521 2.83266C4.46798 2.39922 4.21907 2.01603 3.85293 1.83543C2.93918 1.38157 1.93229 1.02037 0.833862 0.838204V0.475433H6.13971C6.87199 0.475433 7.4212 1.02037 7.51274 1.65326L8.79424 8.45011L12.0863 0.475433H15.2884L10.3487 12.2553ZM17.1191 12.2553H14.0085L16.5699 0.475433H19.6805L17.1191 12.2553ZM23.7049 3.73891C23.7964 3.10445 24.3456 2.74168 24.9863 2.74168C25.9932 2.6506 27.0901 2.83277 28.0054 3.28506L28.5546 0.748799C27.6393 0.386028 26.6324 0.203857 25.7186 0.203857C22.6996 0.203857 20.5027 1.83554 20.5027 4.10011C20.5027 5.82288 22.0588 6.72745 23.1572 7.27239C24.3456 7.81577 24.8033 8.17854 24.7117 8.72191C24.7117 9.53697 23.7964 9.89974 22.8826 9.89974C21.7842 9.89974 20.6858 9.62805 19.6805 9.17419L19.1313 11.712C20.2297 12.1643 21.4181 12.3465 22.5165 12.3465C25.9017 12.436 28.0054 10.8059 28.0054 8.35914C28.0054 5.27794 23.7049 5.09734 23.7049 3.73891ZM38.8917 12.2553L36.4219 0.475433H33.7689C33.2197 0.475433 32.6705 0.838204 32.4874 1.38158L27.9139 12.2553H31.116L31.7552 10.5341H35.6896L36.0557 12.2553H38.8917ZM34.2266 3.64793L35.1404 8.08755H32.579L34.2266 3.64793Z" fill="#172B85"/>
</svg>
